<svg xmlns="http://www.w3.org/2000/svg" xmlns:xlink="http://www.w3.org/1999/xlink" id="Groupe_2" data-name="Groupe 2" width="159" height="44.73" viewBox="0 0 159 44.73"><defs><clipPath id="clip-path"><rect id="Rectangle_10" data-name="Rectangle 10" width="159" height="44.73" fill="none"></rect></clipPath></defs><g id="Groupe_1" data-name="Groupe 1" clip-path="url(#clip-path)"><path id="Trac&#xE9;_1" data-name="Trac&#xE9; 1" d="M287.223,1.251h6.671a6.819,6.819,0,0,1,6.93,6.871,6.816,6.816,0,0,1-6.93,6.871h-2.111v6.5h-4.561Zm6.615,9.5A2.6,2.6,0,0,0,296.4,8.122a2.575,2.575,0,0,0-2.565-2.592h-2.054v5.219Z" transform="translate(-235.279 -1.025)" fill="#ffed00"></path><path id="Trac&#xE9;_2" data-name="Trac&#xE9; 2" d="M375.042,1.249H379.6V16.96h7.87v4.533H375.042Z" transform="translate(-307.215 -1.023)" fill="#ffed00"></path><path id="Trac&#xE9;_3" data-name="Trac&#xE9; 3" d="M432.195,0l-9.981,20.47H427l5.191-11.062,5.191,11.062h4.788Z" transform="translate(-345.856 0)" fill="#ffed00"></path><rect id="Rectangle_1" data-name="Rectangle 1" width="4.559" height="20.244" transform="translate(98.396 0.226)" fill="#ffed00"></rect><path id="Trac&#xE9;_4" data-name="Trac&#xE9; 4" d="M590.425,0v20.47h4.562V9.894l12.774,10.8V.226H603.2v10.58Z" transform="translate(-483.646 0)" fill="#ffed00"></path><path id="Trac&#xE9;_5" data-name="Trac&#xE9; 5" d="M707.413,1.249H719.96V5.754h-7.984V9.178h6.274v4.39h-6.274v3.423h7.984v4.5H707.413Z" transform="translate(-579.477 -1.023)" fill="#ffed00"></path><rect id="Rectangle_2" data-name="Rectangle 2" width="4.437" height="19.694" transform="translate(67.798 24.815)" fill="#ffed00"></rect><path id="Trac&#xE9;_6" data-name="Trac&#xE9; 6" d="M419.976,135.994l9.818,9.848,9.822-9.848v19.917h-4.438v-9.652l-5.384,5.38-5.38-5.38v9.652h-4.438Z" transform="translate(-344.023 -111.399)" fill="#ffed00"></path><path id="Trac&#xE9;_7" data-name="Trac&#xE9; 7" d="M541.989,155.913h-4.656l9.7-19.917,9.708,19.917h-4.659l-5.049-10.764Z" transform="translate(-440.156 -111.401)" fill="#ffed00"></path><path id="Trac&#xE9;_8" data-name="Trac&#xE9; 8" d="M804.761,152.274l3.356-2.746a4.788,4.788,0,0,0,3.633,2.442c1.3,0,1.888-.5,1.888-1.414,0-.887-.638-1.442-2.3-2.192l-1.108-.5c-2.968-1.329-4.6-3.523-4.6-6.184a5.759,5.759,0,0,1,5.989-5.687,6.5,6.5,0,0,1,5.52,2.468l-2.995,3.16c-1-1.219-1.611-1.468-2.526-1.468a1.416,1.416,0,0,0-1.525,1.359c0,1.025.859,1.581,2.661,2.386l1.056.47c2.719,1.221,4.3,3.189,4.3,5.91,0,3.55-2.607,5.849-6.269,5.849-3.164,0-5.714-1.3-7.074-3.854" transform="translate(-659.219 -111.399)" fill="#ffed00"></path><path id="Trac&#xE9;_9" data-name="Trac&#xE9; 9" d="M627.366,140.263a5.286,5.286,0,0,1,4.6,2.192l3.358-2.747a9.845,9.845,0,0,0-7.962-3.716,10.054,10.054,0,0,0-7.754,3.657l2.359,4.845a5.585,5.585,0,0,1,5.4-4.231" transform="translate(-507.555 -111.398)" fill="#ffed00"></path><path id="Trac&#xE9;_10" data-name="Trac&#xE9; 10" d="M654.442,180.169l-1.889,4.16H657.3v2.747a6.29,6.29,0,0,1-3.8.972,5.516,5.516,0,0,1-1.985-.373l2.262,4.637a10.2,10.2,0,0,0,7.824-3.21v-8.933Z" transform="translate(-533.686 -147.585)" fill="#ffed00"></path><rect id="Rectangle_3" data-name="Rectangle 3" width="11.854" height="4.118" transform="translate(131.155 32.493)" fill="#ffed00"></rect><rect id="Rectangle_4" data-name="Rectangle 4" width="12.204" height="4.382" transform="translate(131.155 40.019)" fill="#ffed00"></rect><rect id="Rectangle_5" data-name="Rectangle 5" width="12.207" height="4.379" transform="translate(131.154 24.706)" fill="#ffed00"></rect><rect id="Rectangle_6" data-name="Rectangle 6" width="4.437" height="19.694" transform="translate(67.913 24.815)" fill="#ffed00"></rect><path id="Trac&#xE9;_11" data-name="Trac&#xE9; 11" d="M420.61,135.994l9.818,9.848,9.822-9.848v19.917h-4.438v-9.652l-5.384,5.38-5.38-5.38v9.652H420.61Z" transform="translate(-344.542 -111.399)" fill="#ffed00"></path><path id="Trac&#xE9;_12" data-name="Trac&#xE9; 12" d="M542.623,155.913h-4.656l9.7-19.917,9.708,19.917h-4.659l-5.049-10.764Z" transform="translate(-440.676 -111.401)" fill="#ffed00"></path><path id="Trac&#xE9;_13" data-name="Trac&#xE9; 13" d="M805.4,152.274l3.356-2.746a4.788,4.788,0,0,0,3.633,2.442c1.3,0,1.888-.5,1.888-1.414,0-.887-.638-1.442-2.3-2.192l-1.108-.5c-2.968-1.329-4.6-3.523-4.6-6.184a5.759,5.759,0,0,1,5.989-5.687,6.5,6.5,0,0,1,5.52,2.468l-2.995,3.16c-1-1.219-1.611-1.468-2.526-1.468a1.416,1.416,0,0,0-1.525,1.359c0,1.025.859,1.581,2.661,2.386l1.056.47c2.719,1.221,4.3,3.189,4.3,5.91,0,3.55-2.607,5.849-6.27,5.849-3.163,0-5.714-1.3-7.073-3.854" transform="translate(-659.74 -111.399)" fill="#ffed00"></path><path id="Trac&#xE9;_14" data-name="Trac&#xE9; 14" d="M628,140.263a5.286,5.286,0,0,1,4.6,2.192l3.357-2.747A9.846,9.846,0,0,0,628,135.992a10.052,10.052,0,0,0-7.754,3.657l2.359,4.845a5.585,5.585,0,0,1,5.4-4.231" transform="translate(-508.075 -111.398)" fill="#ffed00"></path><path id="Trac&#xE9;_15" data-name="Trac&#xE9; 15" d="M655.075,180.169l-1.889,4.16h4.743v2.747a6.291,6.291,0,0,1-3.8.972,5.517,5.517,0,0,1-1.985-.373l2.262,4.637a10.2,10.2,0,0,0,7.824-3.21v-8.933Z" transform="translate(-534.205 -147.585)" fill="#ffed00"></path><rect id="Rectangle_7" data-name="Rectangle 7" width="11.854" height="4.118" transform="translate(131.269 32.493)" fill="#ffed00"></rect><rect id="Rectangle_8" data-name="Rectangle 8" width="12.204" height="4.382" transform="translate(131.269 40.019)" fill="#ffed00"></rect><rect id="Rectangle_9" data-name="Rectangle 9" width="12.207" height="4.379" transform="translate(131.269 24.706)" fill="#ffed00"></rect><path id="Trac&#xE9;_16" data-name="Trac&#xE9; 16" d="M.869,33.943,19.2,44.528,37.534,33.943V12.772L19.2,2.187.869,12.772ZM19.2,45.464a.461.461,0,0,1-.218-.058L.218,34.568A.428.428,0,0,1,0,34.193V12.52a.431.431,0,0,1,.218-.375L18.983,1.31a.422.422,0,0,1,.433,0L38.185,12.145a.431.431,0,0,1,.218.375V34.193a.428.428,0,0,1-.218.375L19.416,45.405a.443.443,0,0,1-.215.058" transform="translate(0 -1.024)" fill="#ffed00"></path><path id="Trac&#xE9;_17" data-name="Trac&#xE9; 17" d="M37.978,62.041H.444a.434.434,0,0,1,0-.869H37.978a.434.434,0,1,1,0,.869" transform="translate(-0.009 -50.109)" fill="#ffed00"></path><path id="Trac&#xE9;_18" data-name="Trac&#xE9; 18" d="M104.2,94.544a.433.433,0,0,1-.375-.651l18.765-32.508a.432.432,0,0,1,.593-.16.438.438,0,0,1,.16.6L104.582,94.326a.437.437,0,0,1-.377.218" transform="translate(-85.003 -50.104)" fill="#ffed00"></path><path id="Trac&#xE9;_19" data-name="Trac&#xE9; 19" d="M19.2,94.544a.429.429,0,0,1-.375-.218L.058,61.821a.435.435,0,1,1,.752-.436L19.579,93.893a.433.433,0,0,1-.162.593.417.417,0,0,1-.215.058" transform="translate(0 -50.104)" fill="#ffed00"></path></g></svg>